<svg xmlns="http://www.w3.org/2000/svg" width="424" height="210"><path fill="#010101" d="M372 86.813c3.172 2.843 4.767 5.871 5.198 10.164.096 2.4.13 4.796.146 7.199l.044 2.679c.046 2.819.08 5.638.112 8.457q.063 5.558.156 11.114l.016 2.545c.089 5.313.858 9.918 2.328 15.029 3.938 1.224 6.161.483 10-1l1 5c-4.629 4.084-8.41 5.773-14.562 6.313-3.88-.353-5.496-.769-8.438-3.313-1.556-2.578-2.823-5.23-4-8l-1.617 1.645c-6.22 5.972-11.517 9.18-20.25 9.44-5.71-.293-9.759-1.148-14.133-5.085-2.81-3.854-3.367-6.51-3.25-11.25.015-1.057.03-2.114.047-3.203C325 132 325 132 326 131c2.35-.235 4.706-.414 7.063-.562l3.91-.254L340 130l-.559 2.758c-.53 3.899.304 6.551 1.559 10.242 4.754.78 8.722 1.402 13.375-.062 5.102-3.766 7.59-8.769 8.625-14.938.44-4.328.752-8.657 1-13a1497 1497 0 0 0-7.562 3.688l-2.135 1.029c-4.802 2.367-9.02 5.07-13.303 8.283v-10q3.53-1.659 7.063-3.312l1.99-.936A374 374 0 0 1 363 108c.313-5.836.097-10.886-3-16-3.324-2.612-6.345-3.312-10.5-3.437-2.387.19-2.387.19-4.5 1.437-1.888 3.017-3.18 5.978-4.418 9.313C339 102 339 102 336.004 102.93c-3.004.07-3.004.07-5.879-.805-2.44-2.44-2.55-3.163-2.75-6.5.213-3.457.577-4.556 2.625-7.5 10.829-7.67 31.158-10.026 42-1.312"/><path d="M20 53h43v6l-2.152.402-2.785.535-2.778.528c-2.238.312-2.238.312-3.285 1.535.365 7.92 2.702 14.884 5.254 22.348l1.274 3.795c1.108 3.302 2.227 6.6 3.348 9.898 1.146 3.377 2.282 6.757 3.419 10.137A7355 7355 0 0 0 72 128l3-4 1 6 4 1c-2.183 7.864-4.993 15.417-8 23h-6l-.73-2.027q-3.48-9.658-6.966-19.313-1.791-4.958-3.577-9.918c-4.952-13.75-9.943-27.486-15.11-41.156L38.43 78.39c-3.445-10.033-3.445-10.033-10.38-17.563C25.41 59.762 22.811 59.383 20 59zM81 53h40v6c-.957.09-.957.09-1.934.184l-2.504.254-2.496.246c-2.053.105-2.053.105-3.066 1.316-.414 6.34.71 11.412 2.625 17.426l.807 2.634A1433 1433 0 0 0 117 89.312q1.29 4.151 2.568 8.306.793 2.577 1.602 5.149l.728 2.348.646 2.06C123 109 123 109 123 112h-14c-4.19-8.704-7.031-17.827-10-27-2.371 2.371-2.983 4.265-4.129 7.41l-1.197 3.248-1.237 3.404q-1.216 3.332-2.44 6.66l-1.089 2.993C88 111 88 111 87 112c-2.67.141-5.324.042-8 0 2.398-9.777 5.946-18.99 9.68-28.324 2.89-7.512 4.292-11.856 1.195-19.426C87.277 61.132 84.799 60.362 81 59zM220.25 85.75c5.489 4.49 9.151 9.147 10.2 16.328.078 1.047.156 2.094.238 3.172l.261 3.203L231 111c-1 1-1 1-3.436 1.12l-3.277-.006h-3.7l-4.028-.016-4.099-.005q-5.403-.006-10.806-.024-5.51-.014-11.02-.02-10.816-.016-21.634-.049.458-2.163.926-4.324l.52-2.432C172.568 96.646 178.631 90.491 186 86c10.613-5.239 23.708-5.927 34.25-.25m-29 7.5c-3.033 3.707-5.25 6.875-5.25 11.75q5.926.074 11.853.11c2.006.015 4.012.04 6.018.066l3.809.02 3.523.031c2.936.066 2.936.066 4.797-2.227.067-3.492-.177-5.956-2.387-8.758-6.78-6.308-14.97-7.04-22.363-.992M264 46q.034 12.686.052 25.373.007 5.89.023 11.78.016 5.68.02 11.36.003 2.172.01 4.344c.008 2.02.008 4.042.009 6.063l.006 3.492C264 111 264 111 263 112c-2.02.072-4.042.084-6.062.063l-3.348-.028L251 112l-.076-3.865a10372 10372 0 0 0-.296-14.33q-.065-3.087-.125-6.176-.089-4.465-.187-8.93l-.05-2.744c-.144-6.357-.637-12.628-1.266-18.955l-11-2v-5a1706 1706 0 0 1 13-3l2.984-.68 2.641-.57 2.352-.516C261 45 261 45 264 46M305 45v67h-13l-.06-4.726a6005 6005 0 0 0-.257-17.326q-.058-3.752-.105-7.505a2594 2594 0 0 0-.164-10.775l-.035-3.4-.06-3.154-.04-2.78c-.133-2.605-.133-2.605-2.279-5.334-2.185-.794-2.185-.794-4.625-1.187-.817-.16-1.635-.318-2.477-.481L280 55v-5c19.4-5 19.4-5 25-5"/><path fill="#010101" d="M142 53h32v6l-5.86 1.074c-4.432 1.917-6.3 6.002-8.031 10.286a527 527 0 0 0-1.93 5.175l-1.044 2.775a2012 2012 0 0 0-3.26 8.752 6040 6040 0 0 1-3.281 8.764q-1.02 2.721-2.03 5.445l-.932 2.499-.811 2.188c-.835 2.078-1.792 4.054-2.821 6.042h-8c2.346-9.612 5.796-18.759 9.39-27.957 3.109-7.987 5.473-15.39 5.61-24.043l-9-1zM170 131c11.094-1.199 11.094-1.199 16 0 2.579 2.299 3.859 4.492 5.512 7.508 2.333 3.907 5.158 5.372 9.488 6.492 7.712 1.304 13.523-.828 20-5 2.529-2.1 2.529-2.1 4-4l4 2c0 4 0 4-1.512 6-7.217 6.634-15.36 10.064-25.238 10.375A71 71 0 0 1 198 154l-2.2-.25c-8.021-1.344-15.194-5.258-20.238-11.687-2.454-3.452-3.953-7.165-5.562-11.063"/><path d="M292 131h13l1.074 9.082c.674 3.09.674 3.09 3.332 4.762 2.556 1.14 4.83 1.761 7.594 2.156v5h-37v-5l2.152-.586 2.786-.789 2.777-.773c2.452-.619 2.452-.619 3.285-2.852.228-1.87.41-3.747.563-5.625z"/><path fill="#010101" d="M251 131h13l.586 8.3c.253 2.915.253 2.915 2.414 5.7 1.954.79 1.954.79 4.125 1.188L275 147v5h-36v-5c.615-.066 1.23-.131 1.863-.2 2.866-.57 4.723-1.122 7.137-2.8 1.783-4.36 2.3-8.287 3-13M115 131h21c-1.126 6.756-1.126 6.756-2.375 10.05l-.797 2.116-.828 2.147-.828 2.205c-2.031 5.341-2.031 5.341-3.172 6.482-1.666.04-3.334.043-5 0-3.196-7.53-5.665-15.16-8-23M194.438 48.438c7.699.082 13.348 7.274 18.437 12.374l1.652 1.72c1.553 1.619 1.553 1.619 3.91 3.28L220 67v2c-7.279.644-11.927-1.395-18.312-4.75l-2.706-1.344c-7.541-3.859-7.541-3.859-9.982-7.906.44-4.727.656-5.78 5.438-6.562M80 113c4.294 1.074 4.747 1.508 7 5l1.813-2.5L91 113h3v12h-3l-1-3-1 2-4-1-1 2h-4z"/><path fill="#020202" d="M251 113c6.4-.37 6.4-.37 9.438 1.5L262 116l-.562 3.375c-.755 3.45-.755 3.45.562 5.625-4.875-.875-4.875-.875-6-2l-1 2h-4zm4 3v3h3l-1-3z"/><path fill="#010101" d="m170 113 4 1v8l3-1 1-8h3c.108 1.603.186 3.207.25 4.813l.14 2.707c-.39 2.48-.39 2.48-2.242 4.316C177 126 177 126 174.375 125.813 172 125 172 125 170 123c-.195-2.383-.195-2.383-.125-5.125l.055-2.758z"/><path fill="#020202" d="M128 113h3l1 3 1.25-1.5C135 113 135 113 139 113l-1 1.75c-1.27 2.449-1.27 2.449-1 6.25.933 2.2.933 2.2 2 4-3.375-.547-5.082-1.055-8-3v3h-3z"/><path fill="#010101" d="M312.125 112.875 315 113l1 4-5-1v2l5 1 1 5c-3.85 2.567-5.586 1.833-10 1v-3l6 1v-2l-5-1c-.625-2.375-.625-2.375-1-5 2-2 2-2 5.125-2.125M109 113h4l5 12-6.543-.879c-2.904-.243-2.904-.243-7.457.879zM232 113h4l5 12-6.64-.879c-2.365-.121-4.111.183-6.36.879.665-4.389 2.188-7.981 4-12"/><path fill="#020202" d="M150 113h9v3h-6v2h5l1 7h-9zM193 113c6.625-.25 6.625-.25 10 2 .25 3.063.25 3.063 0 6-1 1-1 1-4.062 1.063L196 122v3h-3zm3 3v3l4-1z"/><path fill="#010101" d="M326 113h11v3h-4v9h-3v-9h-4zM271 113h11v3h-4v9h-3v-9h-4zM292 113h4v12h-4z"/></svg>